<mxfile host="app.diagrams.net" agent="Mozilla/5.0 (Windows NT 10.0; Win64; x64) AppleWebKit/537.36 (KHTML, like Gecko) Chrome/128.0.0.0 Safari/537.36 OPR/114.0.0.0" version="24.7.17">
  <diagram name="Page-1" id="FVP5GDBb-jBf7OiW-bi2">
    <mxGraphModel dx="1393" dy="755" grid="1" gridSize="10" guides="1" tooltips="1" connect="1" arrows="1" fold="1" page="1" pageScale="1" pageWidth="1200" pageHeight="1200" math="0" shadow="0">
      <root>
        <mxCell id="0" />
        <mxCell id="1" parent="0" />
        <mxCell id="hHxsounTUxDUcnkCFfC1-42" style="edgeStyle=orthogonalEdgeStyle;rounded=0;orthogonalLoop=1;jettySize=auto;html=1;exitX=0.5;exitY=0;exitDx=0;exitDy=0;entryX=0;entryY=0.5;entryDx=0;entryDy=0;endArrow=none;endFill=0;" edge="1" parent="1" source="hHxsounTUxDUcnkCFfC1-1" target="hHxsounTUxDUcnkCFfC1-41">
          <mxGeometry relative="1" as="geometry" />
        </mxCell>
        <mxCell id="hHxsounTUxDUcnkCFfC1-43" style="edgeStyle=orthogonalEdgeStyle;rounded=0;orthogonalLoop=1;jettySize=auto;html=1;exitX=0.5;exitY=0;exitDx=0;exitDy=0;entryX=0;entryY=0.5;entryDx=0;entryDy=0;endArrow=none;endFill=0;" edge="1" parent="1" source="hHxsounTUxDUcnkCFfC1-1" target="hHxsounTUxDUcnkCFfC1-40">
          <mxGeometry relative="1" as="geometry" />
        </mxCell>
        <mxCell id="hHxsounTUxDUcnkCFfC1-1" value="Regalos" style="whiteSpace=wrap;html=1;align=center;" vertex="1" parent="1">
          <mxGeometry x="280" y="240" width="100" height="40" as="geometry" />
        </mxCell>
        <mxCell id="hHxsounTUxDUcnkCFfC1-48" style="edgeStyle=orthogonalEdgeStyle;rounded=0;orthogonalLoop=1;jettySize=auto;html=1;exitX=0.5;exitY=0;exitDx=0;exitDy=0;entryX=0;entryY=0.5;entryDx=0;entryDy=0;endArrow=none;endFill=0;" edge="1" parent="1" source="hHxsounTUxDUcnkCFfC1-2" target="hHxsounTUxDUcnkCFfC1-47">
          <mxGeometry relative="1" as="geometry" />
        </mxCell>
        <mxCell id="hHxsounTUxDUcnkCFfC1-49" style="edgeStyle=orthogonalEdgeStyle;rounded=0;orthogonalLoop=1;jettySize=auto;html=1;exitX=0.5;exitY=0;exitDx=0;exitDy=0;entryX=0;entryY=0.5;entryDx=0;entryDy=0;endArrow=none;endFill=0;" edge="1" parent="1" source="hHxsounTUxDUcnkCFfC1-2" target="hHxsounTUxDUcnkCFfC1-45">
          <mxGeometry relative="1" as="geometry" />
        </mxCell>
        <mxCell id="hHxsounTUxDUcnkCFfC1-50" style="edgeStyle=orthogonalEdgeStyle;rounded=0;orthogonalLoop=1;jettySize=auto;html=1;exitX=0.5;exitY=0;exitDx=0;exitDy=0;entryX=0;entryY=0.5;entryDx=0;entryDy=0;endArrow=none;endFill=0;" edge="1" parent="1" source="hHxsounTUxDUcnkCFfC1-2" target="hHxsounTUxDUcnkCFfC1-44">
          <mxGeometry relative="1" as="geometry" />
        </mxCell>
        <mxCell id="hHxsounTUxDUcnkCFfC1-2" value="Obsequios" style="shape=ext;margin=3;double=1;whiteSpace=wrap;html=1;align=center;" vertex="1" parent="1">
          <mxGeometry x="720" y="240" width="100" height="40" as="geometry" />
        </mxCell>
        <mxCell id="hHxsounTUxDUcnkCFfC1-3" value="" style="group" vertex="1" connectable="0" parent="1">
          <mxGeometry x="510" y="220" width="80" height="80" as="geometry" />
        </mxCell>
        <mxCell id="hHxsounTUxDUcnkCFfC1-4" value="&lt;b&gt;R-O&lt;/b&gt;" style="shape=rhombus;perimeter=rhombusPerimeter;whiteSpace=wrap;html=1;align=center;" vertex="1" parent="hHxsounTUxDUcnkCFfC1-3">
          <mxGeometry width="80" height="80" as="geometry" />
        </mxCell>
        <mxCell id="hHxsounTUxDUcnkCFfC1-5" value="" style="endArrow=none;html=1;rounded=0;exitX=0;exitY=0;exitDx=0;exitDy=0;entryX=1;entryY=0;entryDx=0;entryDy=0;" edge="1" parent="hHxsounTUxDUcnkCFfC1-3" source="hHxsounTUxDUcnkCFfC1-4" target="hHxsounTUxDUcnkCFfC1-4">
          <mxGeometry width="50" height="50" relative="1" as="geometry">
            <mxPoint x="-50" y="130" as="sourcePoint" />
            <mxPoint y="80" as="targetPoint" />
          </mxGeometry>
        </mxCell>
        <mxCell id="hHxsounTUxDUcnkCFfC1-6" value="I" style="text;html=1;align=center;verticalAlign=middle;whiteSpace=wrap;rounded=0;" vertex="1" parent="hHxsounTUxDUcnkCFfC1-3">
          <mxGeometry x="30" y="8" width="20" height="10" as="geometry" />
        </mxCell>
        <mxCell id="hHxsounTUxDUcnkCFfC1-7" style="edgeStyle=orthogonalEdgeStyle;rounded=0;orthogonalLoop=1;jettySize=auto;html=1;exitX=0;exitY=0.5;exitDx=0;exitDy=0;entryX=1;entryY=0.5;entryDx=0;entryDy=0;" edge="1" parent="1" source="hHxsounTUxDUcnkCFfC1-4" target="hHxsounTUxDUcnkCFfC1-1">
          <mxGeometry relative="1" as="geometry" />
        </mxCell>
        <mxCell id="hHxsounTUxDUcnkCFfC1-8" style="edgeStyle=orthogonalEdgeStyle;rounded=0;orthogonalLoop=1;jettySize=auto;html=1;exitX=1;exitY=0.5;exitDx=0;exitDy=0;entryX=0;entryY=0.5;entryDx=0;entryDy=0;" edge="1" parent="1" source="hHxsounTUxDUcnkCFfC1-4" target="hHxsounTUxDUcnkCFfC1-2">
          <mxGeometry relative="1" as="geometry" />
        </mxCell>
        <mxCell id="hHxsounTUxDUcnkCFfC1-12" style="edgeStyle=orthogonalEdgeStyle;rounded=0;orthogonalLoop=1;jettySize=auto;html=1;exitX=0.5;exitY=1;exitDx=0;exitDy=0;exitPerimeter=0;entryX=0.5;entryY=1;entryDx=0;entryDy=0;" edge="1" parent="1" source="hHxsounTUxDUcnkCFfC1-10" target="hHxsounTUxDUcnkCFfC1-1">
          <mxGeometry relative="1" as="geometry" />
        </mxCell>
        <mxCell id="hHxsounTUxDUcnkCFfC1-15" style="rounded=0;orthogonalLoop=1;jettySize=auto;html=1;exitX=0;exitY=0;exitDx=25;exitDy=35;exitPerimeter=0;entryX=0.5;entryY=0;entryDx=0;entryDy=0;" edge="1" parent="1" source="hHxsounTUxDUcnkCFfC1-10" target="hHxsounTUxDUcnkCFfC1-14">
          <mxGeometry relative="1" as="geometry" />
        </mxCell>
        <mxCell id="hHxsounTUxDUcnkCFfC1-16" style="rounded=0;orthogonalLoop=1;jettySize=auto;html=1;exitX=0;exitY=0;exitDx=75;exitDy=35;exitPerimeter=0;entryX=0.5;entryY=0;entryDx=0;entryDy=0;" edge="1" parent="1" source="hHxsounTUxDUcnkCFfC1-10" target="hHxsounTUxDUcnkCFfC1-13">
          <mxGeometry relative="1" as="geometry" />
        </mxCell>
        <mxCell id="hHxsounTUxDUcnkCFfC1-39" style="edgeStyle=orthogonalEdgeStyle;rounded=0;orthogonalLoop=1;jettySize=auto;html=1;exitX=1;exitY=1;exitDx=0;exitDy=0;exitPerimeter=0;entryX=1;entryY=0.5;entryDx=0;entryDy=0;endArrow=none;endFill=0;" edge="1" parent="1" source="hHxsounTUxDUcnkCFfC1-10" target="hHxsounTUxDUcnkCFfC1-38">
          <mxGeometry relative="1" as="geometry">
            <Array as="points">
              <mxPoint x="270" y="320" />
              <mxPoint x="270" y="320" />
            </Array>
          </mxGeometry>
        </mxCell>
        <mxCell id="hHxsounTUxDUcnkCFfC1-10" value="" style="verticalLabelPosition=bottom;verticalAlign=top;html=1;shape=mxgraph.basic.acute_triangle;dx=0.5;direction=west;" vertex="1" parent="1">
          <mxGeometry x="280" y="320" width="100" height="70" as="geometry" />
        </mxCell>
        <mxCell id="hHxsounTUxDUcnkCFfC1-11" value="ES_UN" style="text;html=1;align=center;verticalAlign=middle;whiteSpace=wrap;rounded=0;" vertex="1" parent="1">
          <mxGeometry x="300" y="320" width="60" height="30" as="geometry" />
        </mxCell>
        <mxCell id="hHxsounTUxDUcnkCFfC1-13" value="RegalosConsumo" style="whiteSpace=wrap;html=1;align=center;" vertex="1" parent="1">
          <mxGeometry x="210" y="440" width="100" height="40" as="geometry" />
        </mxCell>
        <mxCell id="hHxsounTUxDUcnkCFfC1-14" value="RegalosPedido" style="whiteSpace=wrap;html=1;align=center;" vertex="1" parent="1">
          <mxGeometry x="350" y="440" width="100" height="40" as="geometry" />
        </mxCell>
        <mxCell id="hHxsounTUxDUcnkCFfC1-17" value="Pedidos" style="whiteSpace=wrap;html=1;align=center;" vertex="1" parent="1">
          <mxGeometry x="560" y="480" width="100" height="40" as="geometry" />
        </mxCell>
        <mxCell id="hHxsounTUxDUcnkCFfC1-18" value="Clientes" style="whiteSpace=wrap;html=1;align=center;" vertex="1" parent="1">
          <mxGeometry x="720" y="480" width="100" height="40" as="geometry" />
        </mxCell>
        <mxCell id="hHxsounTUxDUcnkCFfC1-19" value="" style="group" vertex="1" connectable="0" parent="1">
          <mxGeometry x="730" y="340" width="80" height="80" as="geometry" />
        </mxCell>
        <mxCell id="hHxsounTUxDUcnkCFfC1-20" value="&lt;b&gt;L-O&lt;/b&gt;" style="shape=rhombus;perimeter=rhombusPerimeter;whiteSpace=wrap;html=1;align=center;" vertex="1" parent="hHxsounTUxDUcnkCFfC1-19">
          <mxGeometry width="80" height="80" as="geometry" />
        </mxCell>
        <mxCell id="hHxsounTUxDUcnkCFfC1-21" value="" style="endArrow=none;html=1;rounded=0;exitX=0;exitY=0;exitDx=0;exitDy=0;entryX=1;entryY=0;entryDx=0;entryDy=0;" edge="1" parent="hHxsounTUxDUcnkCFfC1-19" source="hHxsounTUxDUcnkCFfC1-20" target="hHxsounTUxDUcnkCFfC1-20">
          <mxGeometry width="50" height="50" relative="1" as="geometry">
            <mxPoint x="-50" y="130" as="sourcePoint" />
            <mxPoint y="80" as="targetPoint" />
          </mxGeometry>
        </mxCell>
        <mxCell id="hHxsounTUxDUcnkCFfC1-22" value="I" style="text;html=1;align=center;verticalAlign=middle;whiteSpace=wrap;rounded=0;" vertex="1" parent="hHxsounTUxDUcnkCFfC1-19">
          <mxGeometry x="30" y="8" width="20" height="10" as="geometry" />
        </mxCell>
        <mxCell id="hHxsounTUxDUcnkCFfC1-23" style="edgeStyle=orthogonalEdgeStyle;rounded=0;orthogonalLoop=1;jettySize=auto;html=1;exitX=0.5;exitY=0;exitDx=0;exitDy=0;entryX=0.5;entryY=1;entryDx=0;entryDy=0;" edge="1" parent="1" source="hHxsounTUxDUcnkCFfC1-20" target="hHxsounTUxDUcnkCFfC1-2">
          <mxGeometry relative="1" as="geometry" />
        </mxCell>
        <mxCell id="hHxsounTUxDUcnkCFfC1-25" value="" style="edgeStyle=orthogonalEdgeStyle;rounded=0;orthogonalLoop=1;jettySize=auto;html=1;" edge="1" parent="1" source="hHxsounTUxDUcnkCFfC1-20" target="hHxsounTUxDUcnkCFfC1-18">
          <mxGeometry relative="1" as="geometry" />
        </mxCell>
        <mxCell id="hHxsounTUxDUcnkCFfC1-27" style="edgeStyle=orthogonalEdgeStyle;rounded=0;orthogonalLoop=1;jettySize=auto;html=1;exitX=0;exitY=0.5;exitDx=0;exitDy=0;entryX=0.75;entryY=0;entryDx=0;entryDy=0;" edge="1" parent="1" source="hHxsounTUxDUcnkCFfC1-26" target="hHxsounTUxDUcnkCFfC1-14">
          <mxGeometry relative="1" as="geometry" />
        </mxCell>
        <mxCell id="hHxsounTUxDUcnkCFfC1-28" style="edgeStyle=orthogonalEdgeStyle;rounded=0;orthogonalLoop=1;jettySize=auto;html=1;exitX=0.5;exitY=1;exitDx=0;exitDy=0;entryX=0.5;entryY=0;entryDx=0;entryDy=0;" edge="1" parent="1" source="hHxsounTUxDUcnkCFfC1-26" target="hHxsounTUxDUcnkCFfC1-17">
          <mxGeometry relative="1" as="geometry" />
        </mxCell>
        <mxCell id="hHxsounTUxDUcnkCFfC1-26" value="&lt;b&gt;E-RP&lt;/b&gt;" style="rhombus;whiteSpace=wrap;html=1;" vertex="1" parent="1">
          <mxGeometry x="570" y="340" width="80" height="80" as="geometry" />
        </mxCell>
        <mxCell id="hHxsounTUxDUcnkCFfC1-29" value="1:N" style="text;html=1;align=center;verticalAlign=middle;whiteSpace=wrap;rounded=0;" vertex="1" parent="1">
          <mxGeometry x="535" y="190" width="30" height="30" as="geometry" />
        </mxCell>
        <mxCell id="hHxsounTUxDUcnkCFfC1-30" value="N:1" style="text;html=1;align=center;verticalAlign=middle;whiteSpace=wrap;rounded=0;" vertex="1" parent="1">
          <mxGeometry x="595" y="310" width="30" height="30" as="geometry" />
        </mxCell>
        <mxCell id="hHxsounTUxDUcnkCFfC1-31" value="1:N" style="text;html=1;align=center;verticalAlign=middle;whiteSpace=wrap;rounded=0;" vertex="1" parent="1">
          <mxGeometry x="700" y="365" width="30" height="30" as="geometry" />
        </mxCell>
        <mxCell id="hHxsounTUxDUcnkCFfC1-32" value="1,1" style="text;html=1;align=center;verticalAlign=middle;whiteSpace=wrap;rounded=0;" vertex="1" parent="1">
          <mxGeometry x="390" y="230" width="30" height="30" as="geometry" />
        </mxCell>
        <mxCell id="hHxsounTUxDUcnkCFfC1-33" value="0,n" style="text;html=1;align=center;verticalAlign=middle;whiteSpace=wrap;rounded=0;" vertex="1" parent="1">
          <mxGeometry x="680" y="230" width="30" height="30" as="geometry" />
        </mxCell>
        <mxCell id="hHxsounTUxDUcnkCFfC1-34" value="0,n" style="text;html=1;align=center;verticalAlign=middle;whiteSpace=wrap;rounded=0;" vertex="1" parent="1">
          <mxGeometry x="770" y="290" width="30" height="30" as="geometry" />
        </mxCell>
        <mxCell id="hHxsounTUxDUcnkCFfC1-35" value="1,1" style="text;html=1;align=center;verticalAlign=middle;whiteSpace=wrap;rounded=0;" vertex="1" parent="1">
          <mxGeometry x="770" y="440" width="30" height="30" as="geometry" />
        </mxCell>
        <mxCell id="hHxsounTUxDUcnkCFfC1-36" value="0,n" style="text;html=1;align=center;verticalAlign=middle;whiteSpace=wrap;rounded=0;" vertex="1" parent="1">
          <mxGeometry x="610" y="445" width="30" height="30" as="geometry" />
        </mxCell>
        <mxCell id="hHxsounTUxDUcnkCFfC1-37" value="0,n" style="text;html=1;align=center;verticalAlign=middle;whiteSpace=wrap;rounded=0;" vertex="1" parent="1">
          <mxGeometry x="425" y="397" width="30" height="30" as="geometry" />
        </mxCell>
        <mxCell id="hHxsounTUxDUcnkCFfC1-38" value="motivo" style="ellipse;whiteSpace=wrap;html=1;align=center;" vertex="1" parent="1">
          <mxGeometry x="140" y="300" width="100" height="40" as="geometry" />
        </mxCell>
        <mxCell id="hHxsounTUxDUcnkCFfC1-40" value="regalo#" style="ellipse;whiteSpace=wrap;html=1;align=center;fontStyle=5;" vertex="1" parent="1">
          <mxGeometry x="350" y="140" width="100" height="40" as="geometry" />
        </mxCell>
        <mxCell id="hHxsounTUxDUcnkCFfC1-41" value="limite" style="ellipse;whiteSpace=wrap;html=1;align=center;" vertex="1" parent="1">
          <mxGeometry x="350" y="185" width="100" height="40" as="geometry" />
        </mxCell>
        <mxCell id="hHxsounTUxDUcnkCFfC1-44" value="cliente#" style="ellipse;whiteSpace=wrap;html=1;align=center;fontStyle=5;" vertex="1" parent="1">
          <mxGeometry x="790" y="95" width="100" height="40" as="geometry" />
        </mxCell>
        <mxCell id="hHxsounTUxDUcnkCFfC1-45" value="regalo#" style="ellipse;whiteSpace=wrap;html=1;align=center;fontStyle=5;" vertex="1" parent="1">
          <mxGeometry x="790" y="140" width="100" height="40" as="geometry" />
        </mxCell>
        <mxCell id="hHxsounTUxDUcnkCFfC1-47" value="fecha_obsequio" style="ellipse;whiteSpace=wrap;html=1;align=center;fontStyle=5;" vertex="1" parent="1">
          <mxGeometry x="790" y="185" width="100" height="40" as="geometry" />
        </mxCell>
      </root>
    </mxGraphModel>
  </diagram>
</mxfile>
